<svg width="64" height="64" viewBox="0 0 64 64" fill="none" xmlns="http://www.w3.org/2000/svg">
<g filter="url(#filter0_d_4998_1775)">
<path d="M32 56C47.464 56 60 43.464 60 28C60 12.536 47.464 0 32 0C16.536 0 4 12.536 4 28C4 43.464 16.536 56 32 56Z" fill="url(#paint0_linear_4998_1775)"/>
</g>
<path d="M17.1075 22.0794C17.2234 21.7154 17.7386 21.7154 17.8545 22.0794L19.0616 25.87C19.2522 26.4687 19.6947 26.9542 20.2732 27.1995L23.6296 28.6224C23.9484 28.7576 23.9484 29.2091 23.6296 29.3443L20.2732 30.7672C19.6947 31.0125 19.2522 31.498 19.0616 32.0967L17.8545 35.8873C17.7386 36.2513 17.2234 36.2513 17.1075 35.8873L15.9004 32.0967C15.7098 31.498 15.2672 31.0125 14.6888 30.7672L11.3323 29.3443C11.0136 29.2091 11.0136 28.7576 11.3323 28.6224L14.6888 27.1995C15.2672 26.9542 15.7098 26.4687 15.9004 25.87L17.1075 22.0794Z" fill="white"/>
<path fill-rule="evenodd" clip-rule="evenodd" d="M21.9293 15.8667H44.7521C45.2042 15.8667 45.5604 16.2503 45.5604 16.6749V21.2778C45.5604 21.7025 45.2179 22.0861 44.7521 22.0861H36.6971V37.7306V39.1552C36.6971 39.7854 36.4505 40.402 35.9984 40.8539L32.423 44.4431L32.3955 44.4706C32.3955 44.4706 32.2585 44.6076 31.9434 44.8952C31.6283 45.1829 31.2037 45.4158 30.9845 45.4158H30.4639C30.2173 45.4158 29.9844 45.2103 29.9844 44.9774V39.2362L31.0112 38.8009C31.7872 38.472 31.7872 37.3722 31.0112 37.0433L29.9844 36.608V22.0861H21.9293C21.4636 22.0861 21.1211 21.7025 21.1211 21.2778V16.6749C21.1211 16.2503 21.4636 15.8667 21.9293 15.8667ZM29.9844 38.4379V37.4064L30.7243 37.72C30.9028 37.7957 30.9028 38.0487 30.7243 38.1243L29.9844 38.4379Z" fill="white"/>
<path d="M27.0719 34.056C27.1368 33.8521 27.4252 33.8521 27.4902 34.056L28.1661 36.1787C28.2729 36.514 28.5206 36.786 28.8447 36.9232L30.7242 37.72C30.9027 37.7958 30.9027 38.0488 30.7242 38.1244L28.8447 38.9212C28.5206 39.0586 28.2729 39.3304 28.1661 39.6657L27.4902 41.7884C27.4252 41.9923 27.1368 41.9923 27.0719 41.7884L26.396 39.6657C26.2892 39.3304 26.0413 39.0586 25.7174 38.9212L23.8377 38.1244C23.6592 38.0488 23.6592 37.7958 23.8377 37.72L25.7174 36.9232C26.0413 36.786 26.2892 36.514 26.396 36.1787L27.0719 34.056Z" fill="white"/>
<defs>
<filter id="filter0_d_4998_1775" x="0" y="0" width="64" height="64" filterUnits="userSpaceOnUse" color-interpolation-filters="sRGB">
<feFlood flood-opacity="0" result="BackgroundImageFix"/>
<feColorMatrix in="SourceAlpha" type="matrix" values="0 0 0 0 0 0 0 0 0 0 0 0 0 0 0 0 0 0 127 0" result="hardAlpha"/>
<feOffset dy="4"/>
<feGaussianBlur stdDeviation="2"/>
<feComposite in2="hardAlpha" operator="out"/>
<feColorMatrix type="matrix" values="0 0 0 0 0 0 0 0 0 0 0 0 0 0 0 0 0 0 0.15 0"/>
<feBlend mode="normal" in2="BackgroundImageFix" result="effect1_dropShadow_4998_1775"/>
<feBlend mode="normal" in="SourceGraphic" in2="effect1_dropShadow_4998_1775" result="shape"/>
</filter>
<linearGradient id="paint0_linear_4998_1775" x1="49.4927" y1="56.248" x2="15.0799" y2="12.9607" gradientUnits="userSpaceOnUse">
<stop stop-color="#DA6235"/>
<stop offset="1" stop-color="#A1278F"/>
</linearGradient>
</defs>
</svg>
