<svg xmlns="http://www.w3.org/2000/svg" width="146" height="22" viewBox="0 0 146 22">
    <path fill="#000" fill-rule="evenodd" d="M23.412 1.191a.595.595 0 0 1 .578-.573h3.613a.573.573 0 0 1 .574.573v7.586h8.682V1.191a.575.575 0 0 1 .577-.573h3.613c.314.009.567.26.578.573v19.927a.595.595 0 0 1-.578.573h-3.613a.575.575 0 0 1-.577-.573v-7.915h-8.682v7.916a.573.573 0 0 1-.574.573H23.99a.595.595 0 0 1-.578-.573V1.191zM58.489.318a10.838 10.838 0 0 0-10.902 10.869c0 6.024 4.827 10.805 10.898 10.805 6.07 0 10.929-4.788 10.929-10.805A10.866 10.866 0 0 0 58.484.317l.005.001zm-.004 16.858c-3.31 0-6.042-2.711-6.042-5.99a6.057 6.057 0 0 1 12.112 0c0 3.279-2.73 5.99-6.07 5.99zm16.899 3.943a.573.573 0 0 0 .578.573h3.613a.595.595 0 0 0 .577-.573v-7.677h2.094l4.036 7.979a.56.56 0 0 0 .487.27h4.036a.568.568 0 0 0 .517-.871l-4.158-7.648c2.64-1.052 4.492-3.281 4.492-6.05 0-3.585-2.975-6.504-6.616-6.504h-9.078a.573.573 0 0 0-.578.573v19.928zM80.15 9.621V4.926h4.492a2.317 2.317 0 0 1 2.308 2.285c0 1.266-1.061 2.41-2.308 2.41h-4.492zm19.04 11.498a.595.595 0 0 0 .578.573h3.61a.573.573 0 0 0 .578-.573V9.891h.03l11.99 11.954a.88.88 0 0 0 .393.155h.487a.568.568 0 0 0 .577-.542V1.19a.595.595 0 0 0-.577-.573h-3.641a.575.575 0 0 0-.578.573v10.686h-.031L100.733.544a.814.814 0 0 0-.563-.226h-.434a.568.568 0 0 0-.577.542l.032 20.26zm25.75 0a.573.573 0 0 0 .577.572h12.568a.575.575 0 0 0 .577-.573v-3.28a.575.575 0 0 0-.577-.573h-8.408v-4.062h6.922a.578.578 0 0 0 .577-.573V9.35a.596.596 0 0 0-.577-.573h-6.922V5.045h8.41a.575.575 0 0 0 .577-.573V1.191a.575.575 0 0 0-.578-.573h-12.57a.573.573 0 0 0-.577.573v19.928zM16.87.618H.578A.575.575 0 0 0 0 1.19v3.281a.575.575 0 0 0 .578.573h5.746v16.337a.34.34 0 0 0 .348.309h.369c.154 0 .463-.17.683-.375.219-.206.32-.31.32-.31l.018-.016 2.555-2.543c.322-.322.504-.76.503-1.216V5.045h5.747a.575.575 0 0 0 .578-.573V1.191a.575.575 0 0 0-.578-.573h.003zM143.006 0a2.827 2.827 0 1 1-2.824 2.831A2.84 2.84 0 0 1 143.009 0h-.003zm0 5.042a2.21 2.21 0 1 0-1.563-.645c.415.414.979.647 1.566.645h-.003zm-1.054-3.508c0-.085.07-.155.155-.155h1.218a.953.953 0 0 1 .967.975.913.913 0 0 1-.559.873l.362.819a.145.145 0 0 1-.135.211h-.425a.171.171 0 0 1-.142-.11l-.346-.88h-.409v.842c0 .085-.07.154-.155.154h-.384a.154.154 0 0 1-.155-.154l.008-2.575zm1.282 1.155a.309.309 0 0 0 .323-.322.309.309 0 0 0-.323-.323h-.618v.647l.618-.002z"/>
</svg>
